<?xml version="1.0" encoding="utf-8"?>
<!-- Generator: Adobe Illustrator 24.3.0, SVG Export Plug-In . SVG Version: 6.00 Build 0)  -->
<svg version="1.1" id="Layer_1" xmlns="http://www.w3.org/2000/svg" xmlns:xlink="http://www.w3.org/1999/xlink" x="0px" y="0px"
	 viewBox="0 0 1500 540.02" style="enable-background:new 0 0 1500 540.02;" xml:space="preserve">
<style type="text/css">
	.st0{fill:#0DC65C;}
</style>
<g>
	<g>
		<g>
			<path d="M242.43,393.12l-1.2-200.89l100.05-54.12l116.22,51.12l-9.59,202.89l-100.65,53.12L242.43,393.12z M317.71,230.77
				l5.59,117.02l20.97,14.98l27.36-10.58l0.6-111.63l-27.95-19.97L317.71,230.77z"/>
		</g>
		<g>
			<path d="M575.12,138.11l-100.05,54.12l1.2,200.89l104.84,52.12l100.65-53.12l9.59-202.89L575.12,138.11z M592.39,215.66
				c2.96-4.13,6.69-7.37,11.97-8.01c6.65-0.81,11.36,2.5,14.93,7.7c4.21,6.13,5.89,13.13,6.3,20.43
				c0.63,11.33-1.28,22.08-8.25,31.39c-3.74,4.99-8.59,8.23-15.21,7.28c-5.6-0.81-9.3-4.4-12.05-9.05
				c-4.2-7.1-5.51-14.92-5.53-23.67C584.76,232.75,586.67,223.63,592.39,215.66z M542.47,217.96c1.36-2.65,3.36-5.18,5.61-7.14
				c6.25-5.48,14.6-4.68,20.59,1.65c5.09,5.38,7.72,11.99,9.02,19.13c0.66,3.63,0.86,7.35,1.26,11.03
				c-0.4,7.46-1.61,14.68-5.3,21.24c-1.26,2.24-2.84,4.4-4.67,6.19c-5.78,5.64-13.81,5.74-19.89,0.42
				c-5.36-4.68-8.24-10.83-9.87-17.57C536.33,240.92,536.74,229.13,542.47,217.96z M503.27,292.83
				c-4.56-11.45-5.82-23.17-2.17-35.09c0.84-2.74,2.23-5.44,3.89-7.79c4.96-7,13.26-8.21,20.2-3.14
				c5.98,4.36,9.33,10.56,11.73,17.33c2.15,6.05,3.19,12.32,3.11,18.76c-0.1,6.97-1.08,13.75-4.84,19.82
				c-5.38,8.7-14.51,10.22-22.44,3.73C508.31,302.82,505.36,298.08,503.27,292.83z M639.76,365.93c-4.57,4.64-11.13,6.99-18.52,6.92
				c-9.73-0.27-18.11-2.87-26.17-6.45c-9.49-4.22-18.8-4.29-28.34-0.2c-7.86,3.37-16.01,5.86-24.67,6.09
				c-8.54,0.23-16.31-1.84-21.68-8.94c-7.51-9.93-11.12-26.98,1.08-40.43c4.82-5.31,10.44-9.67,16.58-13.22
				c6.81-3.93,11.79-9.46,16.09-15.88c2.42-3.61,4.93-7.25,7.92-10.38c11.52-12.07,29.61-11.06,40.37,2.2
				c2.94,3.63,5.45,7.62,8.1,11.48c3.2,4.67,6.95,8.71,11.81,11.74c6.69,4.18,13.13,8.7,18.36,14.73
				C651.28,335.79,650.87,354.65,639.76,365.93z M654.91,301.72c-2.11,3.09-4.78,5.66-8.07,7.52c-5.79,3.27-12.35,2.32-16.92-2.5
				c-4.22-4.45-5.89-10.02-6.75-15.89c-0.36-2.44-0.41-4.92-0.53-6.44c0.28-11.02,2.39-20.61,8.09-29.04
				c2.03-3.01,4.67-5.82,7.59-7.98c6.68-4.95,14.54-3.53,19.6,3.11c3.9,5.11,5.32,11.1,5.73,17.34
				C664.46,280.07,661.9,291.49,654.91,301.72z"/>
		</g>
		<g>
			<g>
				<g>
					<path class="st0" d="M221.86,358.17l-85.47-1.8l86.27-128.2l-1-80.02c0.1-1,0.2-2.01,0.31-3.05c0.05-0.43-0.41-8.44-0.44-9.44
						c-0.07-0.96-0.14-1.92-0.2-2.88c0,0,0,0-0.01,0c0,0,0,0,0.01,0c-0.25-1.47-0.69-3.7-2.13-9.63
						c-0.37-3.17-3.28-10.72-4.91-14.44c-0.35-1.59-1.14-3.01-2.08-4.28c-1.19-1.61-2.71-2.73-4.86-1.53l0,0
						c-1.99,2.54-1.18,5.57-1.29,8.38c-0.41,10.86-1.72,21.58-5.33,31.87c-0.59,1.67-1.29,3.28-2.19,4.78l-3.89,0
						c-0.19-0.35-0.38-0.7-0.56-1.05c-1.17-1.6-9.2-15.95-12.75-21.15c-4.75-6.95-9.18-14.14-14.51-20.67
						c-4.77-5.83-9.92-11.34-17.01-14.51c0,0,0,0,0,0c0,0,0,0,0,0c-0.8-0.33-1.59-0.67-2.39-1c-0.58-0.17-1.15-0.4-1.75-0.5
						c-2.15-0.38-3.44,0.68-3.62,2.85c-0.3,3.49,0.78,6.75,1.4,10.11c1.01,5.47,2.38,18.4,2.51,19.35c0.11,0.89,0.22,1.77,0.32,2.66
						c0,0,0.05,2.51,0.21,3.76c0.18,3.5,0.14,12.84,0,20.2L44.33,148.1l-0.6,80.08h85.87L42.93,354.58l-0.8,76.48l182.12,5.99
						L221.86,358.17z"/>
				</g>
			</g>
		</g>
	</g>
	<g>
		<path d="M778.85,433.37c-2.19,0.6-5.61,1.19-10.27,1.79c-4.67,0.6-9.28,0.89-13.84,0.89c-4.57,0-8.59-0.35-12.06-1.04
			c-3.47-0.69-6.4-1.94-8.78-3.72c-2.38-1.79-4.17-4.27-5.36-7.44c-1.19-3.17-1.79-7.34-1.79-12.5V254.17
			c2.18-0.4,5.66-0.94,10.42-1.64c4.76-0.69,9.33-1.04,13.69-1.04c4.56,0,8.58,0.35,12.06,1.04c3.47,0.7,6.4,1.94,8.78,3.72
			c2.38,1.79,4.17,4.27,5.36,7.44c1.19,3.18,1.79,7.34,1.79,12.5V433.37z"/>
		<path d="M905.36,342.88c0-6.15-1.74-10.67-5.21-13.54c-3.47-2.87-8.19-4.32-14.14-4.32c-3.97,0-7.89,0.5-11.76,1.49
			c-3.87,1-7.19,2.48-9.97,4.47v103.3c-1.99,0.6-5.11,1.19-9.38,1.79c-4.27,0.59-8.68,0.89-13.25,0.89c-4.37,0-8.29-0.3-11.76-0.89
			c-3.47-0.6-6.4-1.79-8.78-3.57c-2.38-1.79-4.22-4.21-5.51-7.29c-1.29-3.07-1.93-7.09-1.93-12.06v-89.31
			c0-5.36,1.14-9.72,3.42-13.1c2.28-3.37,5.4-6.45,9.38-9.23c6.74-4.76,15.23-8.63,25.45-11.61c10.22-2.98,21.58-4.47,34.08-4.47
			c22.42,0,39.69,4.91,51.8,14.73c12.1,9.82,18.16,23.47,18.16,40.93v93.17c-1.99,0.6-5.11,1.19-9.38,1.79
			c-4.27,0.59-8.69,0.89-13.25,0.89c-4.37,0-8.29-0.3-11.76-0.89c-3.47-0.6-6.4-1.79-8.78-3.57c-2.38-1.79-4.22-4.21-5.51-7.29
			c-1.29-3.07-1.94-7.09-1.94-12.06V342.88z"/>
		<path d="M980.97,362.23c0-13.1,1.98-24.46,5.95-34.09c3.97-9.62,9.47-17.61,16.52-23.96c7.04-6.35,15.28-11.06,24.71-14.14
			c9.42-3.08,19.6-4.61,30.51-4.61c3.97,0,7.84,0.35,11.61,1.04c3.77,0.7,6.85,1.54,9.23,2.53v-48.23c1.98-0.59,5.16-1.24,9.53-1.93
			c4.36-0.69,8.83-1.04,13.4-1.04c4.36,0,8.28,0.3,11.76,0.89c3.47,0.6,6.4,1.79,8.78,3.57c2.38,1.79,4.17,4.22,5.36,7.29
			c1.19,3.08,1.79,7.1,1.79,12.06v141.11c0,9.33-4.37,16.77-13.1,22.33c-5.76,3.77-13.2,7.1-22.33,9.97
			c-9.13,2.87-19.65,4.32-31.56,4.32c-12.9,0-24.46-1.79-34.68-5.36c-10.22-3.57-18.86-8.73-25.9-15.48
			c-7.05-6.75-12.4-14.83-16.07-24.26C982.8,384.81,980.97,374.13,980.97,362.23z M1065.51,325.02c-10.72,0-18.95,3.08-24.71,9.23
			c-5.76,6.15-8.63,15.48-8.63,27.98c0,12.31,2.68,21.58,8.04,27.83c5.36,6.25,13.1,9.38,23.22,9.38c3.57,0,6.8-0.54,9.67-1.64
			c2.87-1.09,5.11-2.33,6.7-3.72v-65.49C1075.83,326.21,1071.07,325.02,1065.51,325.02z"/>
		<path d="M1238.17,439.33c-11.71,0-22.58-1.64-32.6-4.91c-10.02-3.27-18.75-8.19-26.2-14.73c-7.44-6.55-13.3-14.78-17.56-24.71
			c-4.27-9.92-6.4-21.53-6.4-34.83c0-13.1,2.13-24.36,6.4-33.79c4.27-9.43,9.87-17.16,16.82-23.22c6.94-6.05,14.88-10.52,23.81-13.4
			c8.93-2.87,18.06-4.32,27.39-4.32c10.52,0,20.09,1.59,28.73,4.76c8.63,3.18,16.07,7.54,22.33,13.1
			c6.25,5.56,11.11,12.21,14.59,19.95c3.47,7.74,5.21,16.18,5.21,25.3c0,6.75-1.89,11.91-5.66,15.48
			c-3.77,3.57-9.03,5.86-15.78,6.85l-73.53,11.02c2.18,6.55,6.65,11.46,13.4,14.73c6.74,3.27,14.48,4.91,23.22,4.91
			c8.14,0,15.82-1.04,23.07-3.13c7.24-2.08,13.14-4.51,17.71-7.29c3.17,1.99,5.85,4.76,8.04,8.33c2.18,3.57,3.27,7.35,3.27,11.31
			c0,8.93-4.17,15.58-12.5,19.94c-6.35,3.38-13.5,5.66-21.43,6.85C1252.56,438.73,1245.12,439.33,1238.17,439.33z M1229.84,322.34
			c-4.76,0-8.88,0.8-12.36,2.38c-3.47,1.59-6.3,3.62-8.48,6.1c-2.19,2.48-3.82,5.26-4.91,8.33c-1.09,3.08-1.74,6.21-1.93,9.38
			l50.9-8.33c-0.6-3.97-2.78-7.94-6.55-11.91C1242.73,324.32,1237.18,322.34,1229.84,322.34z"/>
		<path d="M1315.57,313.41c1.58-7.54,4.71-13.69,9.38-18.46c4.66-4.76,10.47-7.14,17.41-7.14c6.55,0,11.61,1.59,15.18,4.76
			c3.57,3.18,7.54,7.64,11.91,13.4l19.05,25.01l31.85-43.17c10.91,0,19.54,1.93,25.9,5.8c6.35,3.87,9.52,9.08,9.52,15.63
			c0,2.58-0.35,4.91-1.04,7c-0.7,2.08-1.74,4.22-3.13,6.4c-1.39,2.19-3.18,4.67-5.36,7.44c-2.19,2.78-4.76,6.06-7.74,9.82
			l-19.65,22.03l39,51.5c-1,7.54-3.97,13.5-8.93,17.86c-4.96,4.36-10.92,6.55-17.86,6.55c-7.54-0.2-13.55-2.38-18.01-6.55
			c-4.47-4.17-8.78-9.23-12.95-15.18l-16.08-22.92l-30.36,43.76c-1,0-2.09,0.05-3.28,0.15c-1.19,0.1-2.18,0.15-2.98,0.15
			c-10.12,0-17.81-2.09-23.07-6.25c-5.26-4.17-7.89-9.33-7.89-15.48c0-4.76,1.14-8.98,3.42-12.65c2.28-3.67,6.2-8.68,11.76-15.03
			l23.81-27.68L1315.57,313.41z"/>
	</g>
</g>
</svg>
