<svg id="Layer_1" data-name="Layer 1" xmlns="http://www.w3.org/2000/svg" viewBox="0 0 311.25 311.33"><defs><style>.cls-1{fill:#0dc65c;}.cls-2{fill:#0db45c;}</style></defs><path d="M110.22,200.38l-.45-74.91,37.3-20.18,43.34,19.06L186.83,200l-37.52,19.81Zm28.07-60.54,2.08,43.63,7.82,5.59,10.2-3.95.22-41.62L148.19,136Z"/><path d="M234.26,105.29,197,125.47l.45,74.91,39.09,19.43L274,200l3.58-75.65Zm6.44,28.91a6.46,6.46,0,0,1,4.47-3c2.47-.3,4.23.93,5.56,2.87a14.56,14.56,0,0,1,2.35,7.62c.24,4.22-.48,8.23-3.08,11.7-1.39,1.86-3.2,3.07-5.67,2.72a6.29,6.29,0,0,1-4.49-3.38,16.78,16.78,0,0,1-2.06-8.82A17,17,0,0,1,240.7,134.2Zm-18.61.86a9.29,9.29,0,0,1,2.09-2.66c2.33-2,5.45-1.74,7.68.62a13.52,13.52,0,0,1,3.36,7.13c.25,1.36.32,2.74.47,4.11a17.77,17.77,0,0,1-2,7.92,10.38,10.38,0,0,1-1.74,2.31,5.26,5.26,0,0,1-7.42.16,12.17,12.17,0,0,1-3.68-6.55A18.33,18.33,0,0,1,222.09,135.06ZM207.47,163a19.4,19.4,0,0,1-.81-13.09,10.54,10.54,0,0,1,1.46-2.9,5.1,5.1,0,0,1,7.53-1.17,12.91,12.91,0,0,1,4.37,6.46,19.87,19.87,0,0,1,1.16,7,14,14,0,0,1-1.8,7.39c-2,3.24-5.41,3.81-8.37,1.39A12.2,12.2,0,0,1,207.47,163Zm50.9,27.26a9.35,9.35,0,0,1-6.91,2.57,25,25,0,0,1-9.76-2.4,12.59,12.59,0,0,0-10.57-.07,25.21,25.21,0,0,1-9.19,2.27c-3.19.08-6.09-.69-8.09-3.33-2.8-3.71-4.14-10.06.41-15.08a25.56,25.56,0,0,1,6.18-4.93,18.16,18.16,0,0,0,6-5.92,29.28,29.28,0,0,1,2.95-3.87c4.3-4.5,11-4.12,15.05.82,1.1,1.36,2,2.84,3,4.28a15.09,15.09,0,0,0,4.41,4.38,29.69,29.69,0,0,1,6.84,5.49A11.79,11.79,0,0,1,258.37,190.24ZM264,166.3a9,9,0,0,1-3,2.8,5,5,0,0,1-6.31-.93,10.38,10.38,0,0,1-2.52-5.93c-.13-.91-.15-1.83-.19-2.4.1-4.11.89-7.68,3-10.83a12.48,12.48,0,0,1,2.83-3,5,5,0,0,1,7.31,1.16,11.61,11.61,0,0,1,2.14,6.46A19.54,19.54,0,0,1,264,166.3Z"/><path class="cls-1" d="M102.55,187.34l-31.87-.67,32.16-47.8L102.47,109l.12-1.13c0-.17-.15-3.15-.16-3.52s-.06-.72-.08-1.08h0c-.09-.55-.26-1.38-.8-3.59a28.54,28.54,0,0,0-1.83-5.38,4.25,4.25,0,0,0-.77-1.6c-.45-.6-1-1-1.82-.57h0c-.74,1-.44,2.08-.48,3.12a39.94,39.94,0,0,1-2,11.89,10.22,10.22,0,0,1-.81,1.78H92.4l-.21-.39c-.44-.6-3.43-6-4.76-7.89C85.66,98.08,84,95.4,82,93a17.72,17.72,0,0,0-6.34-5.41h0l-.89-.37a5.31,5.31,0,0,0-.65-.19,1,1,0,0,0-1.35,1.06,14.11,14.11,0,0,0,.52,3.77c.37,2,.89,6.86.94,7.21l.12,1s0,.93.07,1.4c.07,1.3.06,4.79,0,7.53l-38.09,0-.22,29.86h32L35.83,186l-.3,28.52,67.91,2.24Z"/><path class="cls-2" d="M66.81,101.3v0l0,0Z"/><path class="cls-1" d="M155.57,311.33a154.66,154.66,0,0,1-110.09-45.6A2.5,2.5,0,0,1,49,262.2,150.68,150.68,0,1,0,262.11,49.1a2.5,2.5,0,1,1,3.54-3.54A155.69,155.69,0,0,1,155.57,311.33Z"/><path d="M47.25,266.47a2.5,2.5,0,0,1-1.77-.74c-1.28-1.28-2.55-2.59-3.77-3.9a2.5,2.5,0,1,1,3.65-3.41c1.19,1.26,2.42,2.54,3.66,3.78a2.51,2.51,0,0,1-1.77,4.27ZM31.46,248a2.52,2.52,0,0,1-2-1c-3-4.1-5.77-8.4-8.33-12.76a2.5,2.5,0,0,1,4.32-2.53c2.47,4.23,5.18,8.38,8.06,12.35a2.5,2.5,0,0,1-2,4Zm-16.74-29.5a2.51,2.51,0,0,1-2.3-1.52c-2-4.65-3.77-9.46-5.3-14.29a2.5,2.5,0,1,1,4.77-1.5c1.48,4.67,3.2,9.32,5.13,13.82a2.5,2.5,0,0,1-1.32,3.28A2.43,2.43,0,0,1,14.72,218.48ZM4.92,186A2.51,2.51,0,0,1,2.46,184c-.91-5-1.59-10.06-2-15.1a2.5,2.5,0,1,1,5-.43c.42,4.89,1.07,9.81,2,14.62a2.5,2.5,0,0,1-2,2.91A2.3,2.3,0,0,1,4.92,186ZM2.5,152.15H2.4A2.49,2.49,0,0,1,0,149.56c.2-5.07.65-10.17,1.33-15.18a2.5,2.5,0,0,1,5,.68c-.67,4.85-1.1,9.79-1.29,14.69A2.49,2.49,0,0,1,2.5,152.15ZM7.55,118.6a2.8,2.8,0,0,1-.64-.08,2.51,2.51,0,0,1-1.78-3.06c1.31-4.9,2.87-9.78,4.64-14.52a2.5,2.5,0,0,1,4.68,1.76c-1.71,4.58-3.22,9.31-4.48,14A2.51,2.51,0,0,1,7.55,118.6ZM19.87,87a2.55,2.55,0,0,1-1.16-.29,2.5,2.5,0,0,1-1.05-3.38c2.35-4.48,4.95-8.89,7.73-13.12a2.5,2.5,0,1,1,4.18,2.74c-2.69,4.1-5.21,8.37-7.49,12.71A2.49,2.49,0,0,1,19.87,87Zm19-28.11a2.43,2.43,0,0,1-1.62-.6A2.49,2.49,0,0,1,37,54.76c2.69-3.16,5.55-6.25,8.49-9.2.64-.64,1.29-1.27,1.94-1.9a2.5,2.5,0,0,1,3.47,3.59c-.63.61-1.25,1.23-1.87,1.85C46.17,52,43.4,55,40.79,58A2.49,2.49,0,0,1,38.89,58.88Zm225-9.05a2.49,2.49,0,0,1-1.77-.73c-3.47-3.48-7.15-6.81-10.92-9.92a2.5,2.5,0,0,1,3.18-3.86c3.9,3.21,7.69,6.66,11.28,10.24a2.5,2.5,0,0,1-1.77,4.27ZM63.59,35.63a2.48,2.48,0,0,1-2-1,2.5,2.5,0,0,1,.49-3.5c4-3,8.29-5.92,12.61-8.55a2.5,2.5,0,1,1,2.6,4.27c-4.18,2.54-8.28,5.33-12.2,8.28A2.48,2.48,0,0,1,63.59,35.63Zm173.81-7a2.54,2.54,0,0,1-1.34-.39c-4.14-2.62-8.46-5.07-12.83-7.27a2.5,2.5,0,0,1,2.24-4.46c4.52,2.27,9,4.8,13.26,7.5a2.5,2.5,0,0,1-1.33,4.62ZM92.79,18.37a2.5,2.5,0,0,1-1-4.78C96.38,11.52,101.16,9.65,106,8a2.5,2.5,0,0,1,1.59,4.74c-4.65,1.56-9.27,3.37-13.74,5.37A2.47,2.47,0,0,1,92.79,18.37Zm114.09-4.59a2.43,2.43,0,0,1-.83-.15c-4.62-1.63-9.37-3.06-14.13-4.24a2.5,2.5,0,0,1,1.2-4.85C198,5.76,203,7.23,207.72,8.92a2.5,2.5,0,0,1-.84,4.86ZM125.09,8a2.5,2.5,0,0,1-.49-4.95c5-1,10-1.77,15.06-2.29a2.5,2.5,0,0,1,.51,5c-4.88.5-9.78,1.24-14.58,2.21A2.92,2.92,0,0,1,125.09,8Zm48.76-2h-.3c-4.86-.59-9.81-.93-14.72-1a2.5,2.5,0,0,1,.11-5c5.06.11,10.18.47,15.2,1.07a2.5,2.5,0,0,1-.29,5Z"/></svg>